<?xml version="1.0" encoding="utf-8"?>
<!-- Generator: Adobe Illustrator 23.1.0, SVG Export Plug-In . SVG Version: 6.00 Build 0)  -->
<svg version="1.1" id="Layer_1" xmlns="http://www.w3.org/2000/svg" xmlns:xlink="http://www.w3.org/1999/xlink" x="0px" y="0px"
	 viewBox="0 0 583 603" style="enable-background:new 0 0 583 603;" xml:space="preserve">
<style type="text/css">
	.st0{fill:none;stroke:#000000;stroke-miterlimit:10;}
	.st1{fill:#FF0000;stroke:#FF0000;stroke-miterlimit:10;}
	.st2{fill:none;stroke:#D22027;stroke-width:18;stroke-miterlimit:10;}
</style>
<g>
	<g>
		<path class="st0" d="M1457.8,338.08"/>
	</g>
</g>
<line class="st0" x1="1488.73" y1="338.53" x2="1487.73" y2="338.53"/>
<g>
	<path class="st1" d="M458.18,170.43c0,0-0.03-0.11-0.07-0.28c-3.81,0-45,0-47.65,0c-0.01,0.06-0.02,0.1-0.02,0.1
		s-64.29,271.46-89.54,378.1c-5.9,24.89-9.66,40.8-9.99,42.18c2.56,0,41.06,0,41.06,0l82.39-350.31c0,0,0.14-0.61,0.29-1.22
		c0.14,0.61,0.29,1.22,0.29,1.22l81.82,350.31c0,0,37.29,0,40.91,0C554.8,578.42,458.18,170.43,458.18,170.43z"/>
	<g>
		<g>
			<path class="st2" d="M104.78,361.49"/>
		</g>
	</g>
	<path class="st1" d="M331.24,82.55L228.25,520.44L145.86,30c-0.04,0-0.05,0-0.05,0S88.97,30,11,30
		c4.77,20.15,11.02,46.6,16.58,70.1c41.85,0,77.79,0,77.79,0l82.39,490.44c0,0,76.54,0,81.82,0l107.69-455.93
		c0,0,0.05-0.19,0.11-0.47c5.86-0.01,80.83-0.01,175.58-0.01c4.53-17.57,9.27-35.94,13.31-51.58
		C438.68,82.55,331.24,82.55,331.24,82.55z"/>
</g>
</svg>
