<?xml version="1.0" encoding="utf-8"?>
<!-- Generator: Adobe Illustrator 23.1.0, SVG Export Plug-In . SVG Version: 6.00 Build 0)  -->
<svg version="1.1" id="Layer_1" xmlns="http://www.w3.org/2000/svg" xmlns:xlink="http://www.w3.org/1999/xlink" x="0px" y="0px"
	 viewBox="0 0 2334 603" style="enable-background:new 0 0 2334 603;" xml:space="preserve">
<style type="text/css">
	.st0{fill:#FF0000;stroke:#FF0000;stroke-miterlimit:10;}
	.st1{fill:none;stroke:#000000;stroke-miterlimit:10;}
	.st2{fill:url(#SVGID_1_);stroke:#FF0000;stroke-miterlimit:10;}
	.st3{fill:#FFFFFF;stroke:#FFFFFF;stroke-width:18;stroke-miterlimit:10;}
	.st4{fill:none;stroke:#D22027;stroke-width:18;stroke-miterlimit:10;}
</style>
<path class="st0" d="M1062.35,158.82c0,0-0.05-0.11-0.11-0.28c-6.67,0-78.65,0-83.27,0c-0.02,0.06-0.04,0.1-0.04,0.1
	S866.56,437.6,822.42,547.19c-10.3,25.58-16.89,41.93-17.46,43.35c4.47,0,71.77,0,71.77,0l144-360c0,0,0.25-0.63,0.5-1.25
	c0.25,0.63,0.5,1.25,0.5,1.25l143,360c0,0,65.17,0,71.51,0C1231.22,578.09,1062.35,158.82,1062.35,158.82z"/>
<path class="st0" d="M1380.73,158.53v360h216c0,0,0.12,0,0.25,0v71.88c0,0,0,0.06,0,0.12c-0.12,0-0.25,0-0.25,0s-279.73,0-287.82,0
	c0-0.06,0-0.11,0-0.11V158.53c3.94,0,72.32,0,72.32,0"/>
<path class="st0" d="M1776.21,338.54c60.2,0,177.29,0.02,180.45,0.1c0,0.09,0,0.16,0,0.16s0,65.67,0,71.47c-0.17,0-0.26,0-0.26,0
	h-215.5c0,0-0.09,0-0.17,0c0,0.14,0,0.27,0,0.27v108c0,0,207.48,0,215.75,0c0,0,0,71.88,0,71.88s0,0.06,0,0.12
	c-0.12,0-0.25,0-0.25,0s-273.05,0-287.41,0c0-14.6,0-432,0-432c5.71,0,287.91,0,287.91,0s0.13,0,0.26,0c0,0.15,0,0.3,0,0.3
	s0,67.74-0.04,71.7c-0.13,0-0.22,0-0.22,0s-204.55,0-216,0c0,0,0,108,0,108c0.25,0,0.5,0,0.5,0S1755.28,338.53,1776.21,338.54z"/>
<g>
	<g>
		<path class="st1" d="M2142.8,338.08"/>
	</g>
</g>
<linearGradient id="SVGID_1_" gradientUnits="userSpaceOnUse" x1="2176.7292" y1="509.2675" x2="2316.7292" y2="509.2675">
	<stop  offset="0" style="stop-color:#FF0000"/>
	<stop  offset="0.8587" style="stop-color:#FF0000"/>
	<stop  offset="1" style="stop-color:#FF0000"/>
</linearGradient>
<path class="st2" d="M2176.81,428.2c-0.03-0.07-0.06-0.14-0.08-0.2c0,0,71,0,71,0s0.11,0,0.28,0
	c4.08,9.66,68.72,162.53,68.72,162.53h-72C2244.73,590.53,2181.58,439.6,2176.81,428.2z"/>
<path class="st0" d="M2316.73,284.53c-1.86-64.95-63.3-125.25-144-126l-144,0c0,0,0,432,0,432c0.07,0,72,0,72,0v-180h72h68v-8
	C2287.83,377.9,2318.08,331.76,2316.73,284.53z M2188.73,338.53c-0.08,0-0.88,0-7,0c-1.29,0-2.57,0-3.86,0c-1.38,0-2.76,0-4.14,0h-1
	h-72v-108h72c1.33,0,2.67,0,4,0c2.67,0,5.33,0,8,0c0.68,0,1.9,0,3,0c31.88-0.05,56.98,25.55,57,54
	C2244.76,324.92,2194.26,338.52,2188.73,338.53z"/>
<line class="st1" x1="2173.73" y1="338.53" x2="2172.73" y2="338.53"/>
<path class="st3" d="M219.64,396.29c0.01,0,0.11-9.91,0.36-15.29c0.26-5.5,0.6-12.92,3-22c3.93-14.87,10.63-23.9,12.42-26.22
	c0.19-0.25,0.37-0.47,0.52-0.67C245.99,319.4,257.71,314.02,260,313c6.63-2.95,11.82-3.84,19-5c5.98-0.97,17.03-2.27,29-1
	c6.41,0.68,37.19,3.95,56.35,25.94C376.95,347.39,381,364.26,381,375c0,26.08,0,207,0,207h56c0-0.2,0-0.39,0-0.39s0-114.34,0-228.61
	c0.4-14.65-1.92-26.33-4-34c-3.27-12.06-12.75-39.27-39-60c-4.34-3.43-11.42-8.47-21-13c-26.9-12.7-51.44-10.84-61-10
	c-8.71,0.77-33.05,3.2-55.93,19.14c-6.54,4.56-11.13,8.94-12.93,10.71c-9.85,9.72-17.56,21.54-23.12,35.35c0,0-0.08,0.19-0.15,0.38
	c0.07-5.19,0.13-10.38,0.13-10.38c0-0.06,0-0.12,0-0.12V239c-18.33,0-36.67,0-55,0c0,172.19,0,342,0,342s0,0.5,0,1c0.5,0,1,0,1,0h54
	V396.32c0-0.01,0-0.02,0-0.04"/>
<g>
	<g>
		<path class="st4" d="M444.7,355.15"/>
	</g>
</g>
<rect x="21" y="239" class="st3" width="55" height="343"/>
<path class="st0" d="M1963.6,104.44c-3.66,9.11-6.63,16.5-6.85,17.06c-0.14,0-0.24,0-0.24,0s-1006.23,0-1035.36,0.02
	c-0.11,0.28-0.19,0.48-0.19,0.48L732.73,590.53c-9.22,0-143,0-143,0l-144-504c0,0-309.39,0-354.53,0c-3.55,0-5.47,0-5.47,0L12,14.8
	c0,0-0.15-0.15-0.31-0.3c252.2,0,504.71,0,504.71,0s0.02,0,0.09,0c0,0,144,504,144,504l180-450c0,0,1111.46,0,1137.53,0
	C1976.73,71.75,1969.32,90.2,1963.6,104.44z"/>
</svg>
