<svg id="Layer_1" enable-background="new 0 0 480 480" height="512" viewBox="0 0 480 480" width="512" xmlns="http://www.w3.org/2000/svg"><path d="m448 22.999h-416c-17.645 0-32 14.355-32 32v288c0 17.645 14.355 32 32 32h172v31c0 4.418 3.582 8 8 8s8-3.582 8-8v-29h40v29c0 4.418 3.582 8 8 8s8-3.582 8-8v-31h172c17.645 0 32-14.355 32-32v-288c0-17.644-14.355-32-32-32zm16 320c0 8.822-7.178 16-16 16h-416c-8.822 0-16-7.178-16-16v-288c0-8.822 7.178-16 16-16h416c8.822 0 16 7.178 16 16zm-104.361 108.377c-1.31 4.211-5.787 6.576-10.016 5.262-67.24-20.92-152.438-20.783-219.246 0-4.219 1.311-8.703-1.043-10.016-5.262-1.313-4.22 1.043-8.703 5.262-10.016 69.922-21.753 158.439-21.876 228.754 0 4.219 1.313 6.574 5.797 5.262 10.016zm-36.232-279.114c-1.409-12.935-12.282-22.688-25.293-22.688h-9.916v-18.525c0-26.798-21.802-48.6-48.6-48.6s-48.598 21.801-48.598 48.599v18.525h-9.916c-13.011 0-23.884 9.754-25.293 22.688l-12.441 114.28c-1.638 15.046 10.167 28.197 25.293 28.197h141.913c15.135 0 26.93-13.16 25.293-28.197zm-12.851 126.476h-141.913c-5.632 0-9.997-4.873-9.387-10.465l12.441-114.279c.522-4.801 4.559-8.421 9.387-8.421h9.916v15.818c0 4.418 3.582 8 8 8s8-3.582 8-8v-50.344c0-17.976 14.624-32.6 32.599-32.6 17.976 0 32.6 14.624 32.6 32.6v18.525h-41.541c-4.418 0-8 3.582-8 8s3.582 8 8 8h41.541v15.818c0 4.418 3.582 8 8 8s8-3.582 8-8v-15.818h9.916c4.828 0 8.864 3.62 9.387 8.421l12.441 114.279c.61 5.598-3.762 10.466-9.387 10.466z"/></svg>