<svg id="Layer_1_1_" enable-background="new 0 0 64 64" height="512" viewBox="0 0 64 64" width="512" xmlns="http://www.w3.org/2000/svg"><path d="m56 2h-34c-2.757 0-5 2.243-5 5v36h2v-36c0-1.654 1.346-3 3-3h34c1.654 0 3 1.346 3 3v50c0 1.654-1.346 3-3 3h-34c-1.654 0-3-1.346-3-3v-8h-2v8c0 2.757 2.243 5 5 5h34c2.757 0 5-2.243 5-5v-50c0-2.757-2.243-5-5-5z"/><path d="m21 53c0 .553.448 1 1 1h34c.552 0 1-.447 1-1v-46c0-.553-.448-1-1-1h-34c-.552 0-1 .447-1 1v36h2v-35h32v44h-32v-3h-2z"/><path d="m34 56h10v2h-10z"/><path d="m7.895 8.553c-.339-.678-1.45-.678-1.789 0l-2 4c-.07.138-.106.292-.106.447v4h2v-3.764l1-2 1 2v39.764h-2v-34h-2v40c0 1.654 1.346 3 3 3s3-1.346 3-3v-46c0-.155-.036-.309-.105-.447zm-.895 51.447c-.551 0-1-.448-1-1v-4h2v4c0 .552-.449 1-1 1z"/><path d="m8 2h-1c-.552 0-1 .447-1 1v1h2z"/><path d="m13 24.556h2v1.955h-2z"/><path d="m13 12.828h2v1.955h-2z"/><path d="m13 16.737h2v1.955h-2z"/><path d="m13 8.919h2v1.954h-2z"/><path d="m13 20.646h2v1.955h-2z"/><path d="m15 41v-.807h-2v.807c0 .461.052.92.156 1.364l1.948-.453c-.069-.296-.104-.602-.104-.911z"/><path d="m9.762 4.072c.515.099.998.296 1.435.585l1.104-1.668c-.658-.436-1.385-.731-2.161-.882z"/><path d="m13.959 4.622-1.652 1.127c.296.435.501.915.609 1.428l1.958-.41c-.162-.771-.47-1.493-.915-2.145z"/><path d="m15.744 43.324-1.627 1.164c.458.641 1.029 1.178 1.695 1.596l1.063-1.693c-.444-.28-.825-.639-1.131-1.067z"/><path d="m13 32.375h2v1.954h-2z"/><path d="m13 28.465h2v1.955h-2z"/><path d="m13 36.284h2v1.954h-2z"/><path d="m22.064 45h1.955v2h-1.955z"/><path d="m20.109 47v-2h-1.109c-.225 0-.452-.019-.676-.057l-.331 1.973c.333.056.672.084 1.007.084z"/><path d="m26 45h2v2h-2z"/><path d="m42 12h-7c-1.654 0-3 1.346-3 3v3.586l-4.706 4.706c-.182.181-.294.431-.294.708v18c0 .553.448 1 1 1h18c.225 0 .423-.088.59-.214l.01.014 4-3c.252-.188.4-.485.4-.8v-12h-2v11.5l-2 1.5v-16c0-.131-.029-.255-.075-.37l.003-.001-.007-.018-1.016-2.54 3.095 1.547v2.382h2v-3c0-.379-.214-.725-.553-.895l-5.447-2.723v-3.382c0-1.654-1.346-3-3-3zm-8.293 7.707c.188-.187.293-.441.293-.707v-4c0-.552.449-1 1-1h7c.551 0 1 .448 1 1v4c0 .127.024.253.071.371l1.452 3.629h-14.109zm11.293 12.293h-16v-7h16zm-16 9v-7h16v7z"/><path d="m36 16h5v2h-5z"/><path d="m53 11c0-.553-.448-1-1-1h-4v2h3v3h2z"/><path d="m25 11v4h2v-3h3v-2h-4c-.552 0-1 .447-1 1z"/><path d="m51 45h-3v2h4c.552 0 1-.447 1-1v-4h-2z"/></svg>