<?xml version="1.0" encoding="utf-8"?>
<!-- Generator: Adobe Illustrator 23.1.0, SVG Export Plug-In . SVG Version: 6.00 Build 0)  -->
<svg version="1.1" xmlns="http://www.w3.org/2000/svg" xmlns:xlink="http://www.w3.org/1999/xlink" x="0px" y="0px"
	 viewBox="0 0 500 411.8" style="enable-background:new 0 0 500 411.8;" xml:space="preserve">
<style type="text/css">
	.st0{fill:#FFFFFF;}
	.st1{fill:#D4E9FA;}
	.st2{fill:#6376BF;}
	.st3{opacity:0.5;fill:#6376BF;}
	.st4{fill:#B4CBDD;}
	.st5{fill:#FFF0EB;}
	.st6{fill:#F05956;}
	.st7{opacity:0.4;fill:#B4CBDD;}
	.st8{fill:#A1BCD1;}
	.st9{opacity:0.4;fill:#A1BCD1;}
	.st10{fill:#FCC574;}
	.st11{opacity:0.5;fill:#B4CBDD;}
	.st12{opacity:0.5;fill:#A1BCD1;}
	.st13{opacity:0.5;fill:#FCC574;}
	.st14{fill:#143C4A;}
	.st15{opacity:0.5;fill:#143C4A;}
</style>
<g id="BACKGROUND">
	<rect class="st0" width="500" height="500"/>
	<path class="st1" d="M53.8,395h381.31c1.19-3,2.48-5.95,3.87-8.84c8.21-17.05,19.92-32.23,25.3-50.6
		c5.57-19.04,3.44-40.98-6.9-57.42c-17.32-27.52-52.94-35.45-70.01-63.15c-13.54-21.98-13.08-53.01-30.26-71.66
		c-13.44-14.58-34.27-17.37-53-14.8c-18.73,2.57-36.8,9.63-55.58,11.64c-19.5,2.08-39.47-1.44-57.4-10.12
		c-10.03-4.86-19.53-11.33-30.2-14.09c-16.9-4.37-35.41,1.52-48.51,14.05c-13.1,12.54-20.87,31.18-22.36,50.21
		c-1.31,16.69,1.92,33.36,2.73,50.08c0.81,16.72-1.27,34.79-11.33,47.35c-9.79,12.23-25.35,17.08-35.85,28.58
		c-15.61,17.1-16.28,46.08-6.13,67.59C43.22,381.74,48.14,388.75,53.8,395z"/>
</g>
<g id="OBJECTS">
	<g>
		<path class="st0" d="M102.75,348.29c-0.47-1.3-1.19-2.52-2.19-3.47c-0.81-0.78-1.78-1.36-2.57-2.16c-2.24-2.25-2.64-5.8-2.09-8.93
			c0.55-3.13,1.88-6.07,2.63-9.16c0.75-3.09,0.84-6.57-0.92-9.22c-1.44-2.16-3.92-3.49-5.24-5.72c-2.17-3.66-0.57-8.5-2.11-12.46
			c-0.26-0.66-0.61-1.29-1.04-1.85c-0.48-0.78-1.1-1.46-1.94-1.93c-0.82-0.46-1.77-0.65-2.72-0.61c-0.94-0.04-1.89,0.15-2.72,0.61
			c-0.84,0.47-1.46,1.15-1.94,1.93c-0.43,0.57-0.79,1.19-1.04,1.85c-1.55,3.96,0.05,8.8-2.11,12.46c-1.32,2.23-3.81,3.56-5.24,5.72
			c-1.76,2.65-1.67,6.13-0.92,9.22c0.75,3.09,2.08,6.03,2.63,9.16c0.54,3.13,0.15,6.68-2.09,8.93c-0.79,0.79-1.77,1.38-2.57,2.16
			c-1,0.95-1.72,2.18-2.19,3.47c-1.32,3.62-0.67,7.81,1.38,11.06c3.16,5.04,8.8,6.4,13.51,9.46c0.3,0.19,0.62,0.38,0.94,0.55
			c0.26,0.23,0.55,0.44,0.9,0.58c0.48,0.19,0.98,0.24,1.49,0.2c0.5,0.04,1-0.01,1.49-0.2c0.35-0.14,0.63-0.35,0.9-0.58
			c0.32-0.17,0.64-0.36,0.94-0.55c4.71-3.05,10.35-4.42,13.51-9.46C103.42,356.09,104.07,351.9,102.75,348.29z"/>
		<g>
			<path class="st2" d="M96.36,392.79c-0.64,0.88-1.37,1.63-2.2,2.21H74.92c-7.5-5.21-6.67-24.22-6.32-29.09
				c0.04-0.64,0.58-1.13,1.22-1.13h29.44c0.65,0,1.18,0.49,1.23,1.13C100.79,370.24,101.48,385.74,96.36,392.79z"/>
			<path class="st3" d="M96.36,392.79c-0.64,0.88-1.37,1.63-2.2,2.21H74.92c-7.5-5.21-6.67-24.22-6.32-29.09
				c0.04-0.64,0.58-1.13,1.22-1.13h0.99C74.71,372.71,84.97,391.2,96.36,392.79z"/>
		</g>
	</g>
	<g>
		<g>
			<rect x="110.85" class="st4" width="2.44" height="156.96"/>
		</g>
		<g>
			<g>
				<path class="st4" d="M382.23,179.76l-2.43-0.2l2-24.05c0.23-2.8,2.17-5.04,4.93-5.71c2.67-0.64,5.33,0.44,6.76,2.75l0.07,0.11
					c1.8,2.99,2.42,6.41,3.02,9.71c0.12,0.67,0.24,1.34,0.38,2.01c1.15,5.82,3,9.75,5.82,12.36l-1.66,1.79
					c-3.22-2.98-5.3-7.32-6.56-13.68c-0.13-0.68-0.26-1.36-0.38-2.05c-0.59-3.23-1.14-6.28-2.71-8.88l-0.05-0.09
					c-1.05-1.7-2.82-1.98-4.12-1.66c-1.31,0.31-2.9,1.43-3.07,3.54L382.23,179.76z"/>
			</g>
			<g>
				<rect x="383.64" class="st4" width="2.44" height="84.61"/>
			</g>
		</g>
	</g>
	<g>
		<path class="st0" d="M364.73,305.38L105.57,283.8c-3.94-0.33-6.87-3.79-6.54-7.73l11.88-142.67c0.22-2.64,2.54-4.6,5.18-4.38
			l263.88,21.97c2.64,0.22,4.6,2.54,4.38,5.18l-11.88,142.67C372.14,302.78,368.68,305.71,364.73,305.38z"/>
		<g>
			<path class="st4" d="M383.91,161.35l-273.44-22.76l0.43-5.18c0.22-2.64,2.54-4.6,5.18-4.38l263.88,21.97
				c2.64,0.22,4.6,2.54,4.38,5.18L383.91,161.35z"/>
			<g>
				<path class="st5" d="M354.33,153.87c-0.11,1.37-1.32,2.39-2.69,2.27c-1.37-0.11-2.39-1.32-2.27-2.69
					c0.11-1.37,1.32-2.39,2.69-2.27C353.42,151.3,354.44,152.5,354.33,153.87z"/>
				<path class="st5" d="M364.96,154.76c-0.11,1.37-1.32,2.39-2.69,2.27c-1.37-0.11-2.39-1.32-2.27-2.69
					c0.11-1.37,1.32-2.39,2.69-2.27C364.05,152.18,365.07,153.39,364.96,154.76z"/>
				<path class="st5" d="M375.59,155.64c-0.11,1.37-1.32,2.39-2.69,2.27c-1.37-0.11-2.39-1.32-2.27-2.69
					c0.11-1.37,1.32-2.39,2.69-2.27C374.69,153.07,375.71,154.27,375.59,155.64z"/>
			</g>
		</g>
	</g>
	<g>
		<g>
			<path class="st6" d="M235.79,185.33l-2.66-0.22l-0.29,3.43l-3.69-0.31l0.29-3.43l-8.8-0.73l0.21-2.54l8.57-9.73l3.97,0.33
				l-7.96,9.24l4.39,0.37l0.25-3.06l3.57,0.3l-0.25,3.06l2.66,0.22L235.79,185.33z"/>
			<path class="st6" d="M237.31,180.69c0.45-5.39,3.69-8.2,7.71-7.87c4.04,0.34,6.75,3.64,6.3,9.04c-0.45,5.39-3.67,8.21-7.71,7.87
				C239.59,189.39,236.86,186.08,237.31,180.69z M247.51,181.54c0.31-3.71-0.87-5.36-2.76-5.52c-1.87-0.16-3.3,1.28-3.61,4.99
				c-0.31,3.71,0.87,5.36,2.74,5.52C245.77,186.68,247.2,185.25,247.51,181.54z"/>
			<path class="st6" d="M267.75,187.99l-2.66-0.22l-0.29,3.43l-3.69-0.31l0.29-3.43l-8.8-0.73l0.21-2.54l8.57-9.73l3.97,0.33
				l-7.96,9.24l4.39,0.37l0.25-3.06l3.57,0.3l-0.25,3.06l2.66,0.22L267.75,187.99z"/>
		</g>
	</g>
	<g>
		
			<rect x="202.53" y="197.13" transform="matrix(0.9966 0.083 -0.083 0.9966 18.9769 -17.9016)" class="st4" width="44.77" height="44.56"/>
		<path class="st7" d="M249.07,199.07l-3.7,44.41l-44.61-3.72l0.22-2.67l23.61,1.96c10.56,0.88,19.83-6.97,20.71-17.53l1.88-22.61
			L249.07,199.07z"/>
	</g>
	<g>
		
			<rect x="247.16" y="200.37" transform="matrix(0.9966 0.083 -0.083 0.9966 19.3798 -21.1186)" class="st8" width="33.33" height="44.56"/>
		<path class="st9" d="M278.85,243.09l-0.26,3.15l-33.22-2.76l3.7-44.41l2.56,0.21l-1.52,18.22c-1.06,12.72,8.39,23.89,21.11,24.95
			L278.85,243.09z"/>
	</g>
	
		<rect x="248.39" y="228.76" transform="matrix(0.904 -0.4276 0.4276 0.904 -75.3812 130.7909)" class="st6" width="10.16" height="8.89"/>
	<g>
		
			<rect x="268" y="229.21" transform="matrix(0.9966 0.083 -0.083 0.9966 20.0405 -21.8211)" class="st10" width="9.22" height="2.08"/>
		
			<rect x="265.68" y="232.61" transform="matrix(0.9966 0.083 -0.083 0.9966 20.3184 -21.7017)" class="st10" width="11.25" height="2.08"/>
	</g>
	<polygon class="st4" points="284.23,221.19 251.01,218.42 249.07,199.07 282.29,201.83 	"/>
	<g>
		<polygon class="st4" points="243.5,217.8 198.89,214.08 204.06,195.32 248.67,199.04 		"/>
		<path class="st7" d="M244.03,215.87l-0.53,1.93l-44.61-3.72l5.17-18.76l1.82,0.15l0,0c-2.41,8.75,3.72,17.54,12.77,18.29
			L244.03,215.87z"/>
		<polygon class="st11" points="249.07,199.07 247.56,217.21 246.87,219.71 202.74,216.04 202.87,214.41 243.5,217.8 248.67,199.04 
					"/>
	</g>
	<g>
		<polygon class="st4" points="284.23,221.19 251.01,218.42 249.07,199.07 282.29,201.83 		"/>
		<polygon class="st12" points="280.7,220.9 280.57,222.46 248.43,219.79 247.84,213.87 249.07,199.07 251.01,218.42 		"/>
		<path class="st7" d="M284.23,221.19l-33.22-2.77l-0.23-2.28l13.52,1.13c8.9,0.74,16.29-6.77,15.4-15.66l0,0l2.59,0.22
			L284.23,221.19z"/>
	</g>
	<polygon class="st10" points="379.34,262.95 259.33,266.42 213.11,267.75 97.06,271.1 96.95,267.44 96.67,257.61 147.37,256.15 
		147.38,256.15 210.6,254.32 245.18,253.32 256.79,252.99 378.95,249.47 379.29,261.07 	"/>
	<path class="st13" d="M245.5,266.66l-32.39,1.09L97.06,271.1l-0.11-3.66c22.12-0.89,96.67-0.06,99.38-0.78
		c2.47-0.65-33.12-7.52-48.95-10.51l63.22-1.83C215.24,257.55,245.5,266.66,245.5,266.66z"/>
	<path class="st13" d="M379.34,262.95l-120.01,3.47l-14.15-13.1l11.61-0.33l36.04,4.51l32.63,5.41c4.01,0.67,8.09,0.88,12.15,0.64
		l41.68-2.48L379.34,262.95z"/>
	<polygon class="st10" points="378.91,271.72 377.62,281.64 377.17,285.1 97.11,248.85 98.84,235.47 106.98,236.52 	"/>
	<path class="st13" d="M377.62,281.64l-0.45,3.46L97.11,248.85l1.73-13.38l8.14,1.05c0.35,3.92,1.54,8.46,5.09,9.75
		C117.98,248.42,333.02,275.95,377.62,281.64z"/>
	<g>
		<path class="st1" d="M77.89,168.9v-5.04h-3.56c-0.27-1.1-0.7-2.14-1.28-3.08l2.52-2.52L72,154.69l-2.52,2.52
			c-0.94-0.58-1.98-1.01-3.08-1.28v-3.56h-5.04v3.56c-1.1,0.27-2.14,0.7-3.08,1.28l-2.52-2.52l-3.56,3.57l2.52,2.52
			c-0.58,0.94-1.01,1.98-1.28,3.08h-3.56v5.04h3.56c0.27,1.1,0.7,2.14,1.28,3.08l-2.52,2.52l3.56,3.57l2.52-2.52
			c0.94,0.58,1.98,1.01,3.08,1.28v3.56h5.04v-3.56c1.1-0.27,2.14-0.7,3.08-1.28l2.52,2.52l3.56-3.57l-2.52-2.52
			c0.58-0.94,1.01-1.98,1.28-3.08H77.89z M63.89,170c-2,0-3.63-1.62-3.63-3.63c0-2,1.62-3.63,3.63-3.63c2,0,3.63,1.62,3.63,3.63
			C67.51,168.38,65.89,170,63.89,170z"/>
		<path class="st1" d="M86.76,148.36v-3.47h-2.45c-0.18-0.76-0.48-1.47-0.88-2.12l1.73-1.73l-2.45-2.45l-1.73,1.73
			c-0.65-0.4-1.36-0.7-2.12-0.88V137H75.4v2.45c-0.76,0.18-1.47,0.48-2.12,0.88l-1.73-1.73l-2.45,2.45l1.73,1.73
			c-0.4,0.65-0.7,1.36-0.88,2.12h-2.45v3.47h2.45c0.18,0.76,0.48,1.47,0.88,2.12l-1.73,1.73l2.45,2.45l1.73-1.73
			c0.65,0.4,1.36,0.7,2.12,0.88v2.45h3.47v-2.45c0.76-0.18,1.47-0.48,2.12-0.88l1.73,1.73l2.45-2.45l-1.73-1.73
			c0.4-0.65,0.69-1.36,0.88-2.12H86.76z M77.14,149.12c-1.38,0-2.49-1.12-2.49-2.49s1.12-2.49,2.49-2.49c1.38,0,2.49,1.12,2.49,2.49
			S78.51,149.12,77.14,149.12z"/>
	</g>
	<path class="st1" d="M412.95,120.22v-3.47h-2.45c-0.18-0.76-0.48-1.47-0.88-2.12l1.73-1.73l-2.45-2.45l-1.73,1.73
		c-0.65-0.4-1.36-0.7-2.12-0.88v-2.45h-3.47v2.45c-0.76,0.18-1.47,0.48-2.12,0.88l-1.73-1.73l-2.45,2.45l1.73,1.73
		c-0.4,0.65-0.7,1.36-0.88,2.12h-2.45v3.47h2.45c0.18,0.76,0.48,1.47,0.88,2.12l-1.73,1.73l2.45,2.45l1.73-1.73
		c0.65,0.4,1.36,0.69,2.12,0.88v2.45h3.47v-2.45c0.76-0.18,1.47-0.48,2.12-0.88l1.73,1.73l2.45-2.45l-1.73-1.73
		c0.4-0.65,0.69-1.36,0.88-2.12H412.95z M403.33,120.98c-1.38,0-2.49-1.12-2.49-2.49c0-1.38,1.12-2.49,2.49-2.49
		c1.38,0,2.49,1.12,2.49,2.49C405.82,119.86,404.7,120.98,403.33,120.98z"/>
	<path class="st1" d="M429.89,129.85v-3.47h-2.45c-0.18-0.76-0.48-1.47-0.88-2.12l1.73-1.73l-2.45-2.45l-1.73,1.73
		c-0.65-0.4-1.36-0.7-2.12-0.88v-2.45h-3.47v2.45c-0.76,0.18-1.47,0.48-2.12,0.88l-1.73-1.73l-2.45,2.45l1.73,1.73
		c-0.4,0.65-0.7,1.36-0.88,2.12h-2.45v3.47h2.45c0.18,0.76,0.48,1.47,0.88,2.12l-1.73,1.73l2.45,2.45l1.73-1.73
		c0.65,0.4,1.36,0.7,2.12,0.88v2.45H422v-2.45c0.76-0.18,1.47-0.48,2.12-0.88l1.73,1.73l2.45-2.45l-1.73-1.73
		c0.4-0.65,0.7-1.36,0.88-2.12H429.89z M420.27,130.61c-1.38,0-2.49-1.12-2.49-2.49c0-1.38,1.12-2.49,2.49-2.49
		c1.38,0,2.49,1.12,2.49,2.49C422.76,129.49,421.65,130.61,420.27,130.61z"/>
	<path class="st14" d="M299.96,329.77l-5.72,10.8l6.7,10.23l16.94-0.89l-6.46,9.51l-23.12,1.07l-6.04-10.67
		c-11.4,0.53-22.81,1.05-34.21,1.58c-7.13,0.33-14.25,0.66-21.38,0.99c-0.97,0.05-1.93,0.09-2.9,0.14l-5.03,11.19l-23.12,1.06
		l-7.32-8.86l1.52-0.06l15.44-0.63l5.72-10.8l-6.7-10.22l-16.94,0.88l6.46-9.51l23.13-1.07l6.03,10.67
		c0.4-0.02,42.58-1.98,42.59-1.98c0.01,0,1.34-0.06,1.35-0.06c0.01,0,1.17-0.05,1.18-0.05c0.02,0,1.27-0.06,1.29-0.06
		c0.01,0,1.04-0.05,1.05-0.05c2.07-0.1,6.81-0.32,7.67-0.36c0.71-0.03,2.64-0.12,3.37-0.16l5.02-11.18l23.13-1.08l7.31,8.87
		l-1.49,0.06L299.96,329.77z"/>
	<path class="st15" d="M226.65,352.39l-2.9,0.14l-5.03,11.19l-23.12,1.06l-7.32-8.86l1.52-0.06c2.22,1.95,8.24,6.78,12.78,6.27
		c5.67-0.66,19.93-5.56,21.39-15.32C224.95,340.29,226.09,346.45,226.65,352.39z"/>
	<path class="st15" d="M316.9,329.09l-1.49,0.06c-0.99-1.03-2.14-2.23-3.28-3.49c-3.16-3.49-20.7-2.81-23.13-2.23
		c-2.43,0.57-7,13.13-9.05,14.64c-1.35,1-1.77-2.66-1.89-5.43l3.37-0.16l5.02-11.18l23.13-1.08L316.9,329.09z"/>
	<path class="st15" d="M222.95,335.19L222.95,335.19c0.25,2.66,2.69,4.57,5.34,4.16l41.7-6.34L222.95,335.19z"/>
	<g>
		<rect x="32.72" y="394.75" class="st4" width="426.28" height="3"/>
	</g>
	<path class="st0" d="M428.85,348.04c-0.47-1.3-1.19-2.52-2.19-3.47c-0.81-0.78-1.78-1.36-2.57-2.16c-2.24-2.25-2.64-5.8-2.09-8.93
		c0.55-3.13,1.88-6.07,2.63-9.16c0.75-3.09,0.84-6.57-0.92-9.22c-1.44-2.16-3.92-3.49-5.24-5.72c-2.17-3.66-0.57-8.5-2.11-12.46
		c-0.26-0.66-0.61-1.29-1.04-1.85c-0.24-0.32-1.42-1.96-1.94-1.93c-2.2,0.11-2.71,29.67-2.9,29.67c-0.19,0-0.36-29.54-2.53-29.67
		c-0.52-0.03-1.7,1.61-1.94,1.93c-0.43,0.57-0.79,1.19-1.04,1.85c-1.55,3.96,0.05,8.8-2.11,12.46c-1.32,2.23-3.81,3.56-5.24,5.72
		c-1.76,2.65-1.67,6.13-0.92,9.22c0.75,3.09,2.08,6.03,2.63,9.16c0.54,3.13,0.15,6.68-2.09,8.93c-0.79,0.79-1.77,1.38-2.57,2.16
		c-1,0.95-1.72,2.18-2.19,3.47c-1.32,3.62-0.67,7.81,1.38,11.06c3.16,5.04,8.8,6.4,13.51,9.46c0.3,0.19,0.62,0.38,0.94,0.55
		c0.26,0.23,0.55,0.44,0.9,0.58c0.48,0.19,0.98,0.24,1.49,0.2c0.5,0.04,1-0.01,1.49-0.2c0.35-0.14,0.63-0.35,0.9-0.58
		c0.32-0.17,0.64-0.36,0.94-0.55c4.71-3.05,10.35-4.42,13.51-9.46C429.52,355.84,430.17,351.65,428.85,348.04z"/>
	<g>
		<path class="st2" d="M422.46,392.54c-0.64,0.88-1.37,1.63-2.2,2.21h-19.24c-7.5-5.21-6.67-24.22-6.32-29.09
			c0.04-0.64,0.58-1.13,1.22-1.13h29.44c0.65,0,1.18,0.49,1.23,1.13C426.89,369.99,427.58,385.49,422.46,392.54z"/>
		<path class="st3" d="M422.46,392.54c-0.64,0.88-1.37,1.63-2.2,2.21h-19.24c-7.5-5.21-6.67-24.22-6.32-29.09
			c0.04-0.64,0.58-1.13,1.22-1.13h0.99C400.81,372.46,411.07,390.95,422.46,392.54z"/>
	</g>
	<path class="st2" d="M207.54,346.51v-3.47h-2.45c-0.18-0.76-0.48-1.47-0.88-2.12l1.73-1.73l-2.45-2.45l-1.73,1.73
		c-0.65-0.4-1.36-0.7-2.12-0.88v-2.45h-3.47v2.45c-0.76,0.18-1.47,0.48-2.12,0.88l-1.73-1.73l-2.45,2.45l1.73,1.73
		c-0.4,0.65-0.69,1.36-0.88,2.12h-2.45v3.47h2.45c0.18,0.76,0.48,1.47,0.88,2.12l-1.73,1.73l2.45,2.45l1.73-1.73
		c0.65,0.4,1.36,0.7,2.12,0.88v2.45h3.47v-2.45c0.76-0.18,1.47-0.48,2.12-0.88l1.73,1.73l2.45-2.45l-1.73-1.73
		c0.4-0.65,0.7-1.36,0.88-2.12H207.54z M197.91,347.27c-1.38,0-2.49-1.12-2.49-2.49s1.12-2.49,2.49-2.49c1.38,0,2.49,1.12,2.49,2.49
		S199.29,347.27,197.91,347.27z"/>
	<path class="st2" d="M316.74,341.66v-3.47h-2.45c-0.18-0.76-0.48-1.47-0.88-2.12l1.73-1.73l-2.45-2.45l-1.73,1.73
		c-0.65-0.4-1.36-0.7-2.12-0.88v-2.45h-3.47v2.45c-0.76,0.18-1.47,0.48-2.12,0.88l-1.73-1.73l-2.45,2.45l1.73,1.73
		c-0.4,0.65-0.7,1.36-0.88,2.12h-2.45v3.47h2.45c0.18,0.76,0.48,1.47,0.88,2.12l-1.73,1.73l2.45,2.45l1.73-1.73
		c0.65,0.4,1.36,0.69,2.12,0.88v2.45h3.47v-2.45c0.76-0.18,1.47-0.48,2.12-0.88l1.73,1.73l2.45-2.45l-1.73-1.73
		c0.4-0.65,0.7-1.36,0.88-2.12H316.74z M307.11,342.42c-1.38,0-2.49-1.12-2.49-2.49c0-1.38,1.12-2.49,2.49-2.49
		c1.38,0,2.49,1.12,2.49,2.49C309.6,341.3,308.49,342.42,307.11,342.42z"/>
</g>
<g id="DESIGNED_BY_FREEPIK">
</g>
</svg>
